<svg width="18" height="18" viewBox="0 0 18 18" fill="none" xmlns="http://www.w3.org/2000/svg">
<path opacity="0.9" d="M9.00201 4.38408C6.44808 4.38408 4.38806 6.4441 4.38806 8.99805C4.38806 11.552 6.44808 13.612 9.00201 13.612C11.5559 13.612 13.616 11.552 13.616 8.99805C13.616 6.4441 11.5559 4.38408 9.00201 4.38408ZM9.00201 11.9977C7.35159 11.9977 6.00234 10.6525 6.00234 8.99805C6.00234 7.3436 7.34757 5.99836 9.00201 5.99836C10.6564 5.99836 12.0017 7.3436 12.0017 8.99805C12.0017 10.6525 10.6524 11.9977 9.00201 11.9977ZM14.8809 4.19534C14.8809 4.79367 14.399 5.27153 13.8047 5.27153C13.2064 5.27153 12.7285 4.78966 12.7285 4.19534C12.7285 3.60103 13.2104 3.11915 13.8047 3.11915C14.399 3.11915 14.8809 3.60103 14.8809 4.19534ZM17.9368 5.2876C17.8685 3.84598 17.5392 2.56901 16.4831 1.51691C15.431 0.46481 14.154 0.135528 12.7124 0.0632463C11.2267 -0.0210821 6.77334 -0.0210821 5.28756 0.0632463C3.84997 0.131512 2.57301 0.460795 1.5169 1.51289C0.460792 2.56499 0.135527 3.84196 0.063246 5.28358C-0.021082 6.76937 -0.021082 11.2227 0.063246 12.7085C0.131511 14.1501 0.460792 15.4271 1.5169 16.4792C2.57301 17.5313 3.84596 17.8606 5.28756 17.9328C6.77334 18.0172 11.2267 18.0172 12.7124 17.9328C14.154 17.8646 15.431 17.5353 16.4831 16.4792C17.5352 15.4271 17.8645 14.1501 17.9368 12.7085C18.0211 11.2227 18.0211 6.77338 17.9368 5.2876ZM16.0173 14.3027C15.7041 15.0898 15.0977 15.6961 14.3066 16.0134C13.122 16.4832 10.3111 16.3748 9.00201 16.3748C7.69292 16.3748 4.87797 16.4792 3.69738 16.0134C2.91032 15.7002 2.30396 15.0938 1.98673 14.3027C1.5169 13.1181 1.62532 10.3071 1.62532 8.99805C1.62532 7.68895 1.52091 4.87398 1.98673 3.69339C2.29994 2.90632 2.9063 2.29996 3.69738 1.98272C4.88199 1.51289 7.69292 1.62131 9.00201 1.62131C10.3111 1.62131 13.126 1.51691 14.3066 1.98272C15.0937 2.29594 15.7001 2.9023 16.0173 3.69339C16.4871 4.878 16.3787 7.68895 16.3787 8.99805C16.3787 10.3071 16.4871 13.1221 16.0173 14.3027Z" fill="#FCFCFC"/>
</svg>
