<svg width="18" height="15" viewBox="0 0 18 15" fill="none" xmlns="http://www.w3.org/2000/svg">
<path opacity="0.9" d="M2.13231 2.91375C2.15464 2.6942 2.06905 2.47464 1.90531 2.32579L0.227 0.301423V0H5.44428L9.47819 8.84546L13.0246 0H18V0.301423L16.5636 1.67829C16.4408 1.77132 16.3775 1.92762 16.4036 2.08019V12.202C16.3775 12.3546 16.4408 12.5109 16.5636 12.6039L17.9665 13.9808V14.2822H10.9072V13.9808L12.3622 12.5704C12.5036 12.429 12.5036 12.3844 12.5036 12.1685V3.9892L8.45855 14.2562H7.91152L3.20777 3.9892V10.8698C3.16684 11.1601 3.26359 11.4503 3.46827 11.6587L5.35869 13.951V14.2525H0V13.9548L1.89043 11.6587C2.09138 11.4503 2.18441 11.1564 2.13231 10.8698V2.91375Z" fill="#FCFCFC"/>
</svg>
