<svg width="18" height="15" viewBox="0 0 18 15" fill="none" xmlns="http://www.w3.org/2000/svg">
<path opacity="0.9" d="M16.1498 3.64335C16.1612 3.80324 16.1612 3.96316 16.1612 4.12305C16.1612 8.99989 12.4493 14.6191 5.66499 14.6191C3.57488 14.6191 1.63326 14.0138 0 12.9631C0.296966 12.9973 0.582471 13.0088 0.890863 13.0088C2.61546 13.0088 4.20305 12.4263 5.47083 11.4326C3.84899 11.3984 2.48985 10.3362 2.02156 8.87427C2.25001 8.90851 2.47842 8.93137 2.71829 8.93137C3.0495 8.93137 3.38074 8.88566 3.6891 8.80575C1.99875 8.46309 0.730936 6.97835 0.730936 5.18522V5.13955C1.22204 5.41366 1.79315 5.58498 2.39844 5.60779C1.40478 4.94535 0.753788 3.81467 0.753788 2.53548C0.753788 1.85022 0.936496 1.22206 1.25631 0.673834C3.07232 2.91239 5.80203 4.37428 8.86293 4.5342C8.80583 4.26009 8.77155 3.97459 8.77155 3.68905C8.77155 1.65606 10.4162 0 12.4607 0C13.5228 0 14.4822 0.445426 15.1561 1.16496C15.9898 1.00507 16.7893 0.696685 17.4975 0.274111C17.2233 1.13072 16.6409 1.85026 15.8756 2.30707C16.618 2.22716 17.3376 2.02154 18 1.73604C17.4975 2.46696 16.8693 3.11795 16.1498 3.64335Z" fill="#FCFCFC"/>
</svg>
