<svg width="27" height="29" fill="none" xmlns="http://www.w3.org/2000/svg"><path d="M26.73 17.563c-.73-3.06-2.773-5.018-3.031-7.752-.192-1.952 1.192-3.23 1.052-5.592C24.604 1.783 22.9.006 20.7 0c-2.2.006-3.899 1.783-4.045 4.219-.14 2.363 1.237 3.645 1.052 5.592-.259 2.734-2.307 4.697-3.032 7.752-.704 2.942.022 7.87 1.586 10.76l.253.473h8.382l.253-.472c1.558-2.892 2.284-7.82 1.58-10.762zM22.95 4.325C23.047 5.935 22.046 7.099 21.9 9h-2.397c-.146-1.907-1.153-3.06-1.052-4.675.203-3.38 4.298-3.38 4.5 0zm.85 22.67h-6.2c-1.18-2.542-1.743-6.677-1.18-9.017.601-2.52 2.356-4.332 2.93-7.184h2.7c.574 2.852 2.33 4.664 2.931 7.184.557 2.346-.005 6.475-1.181 9.017zM9.298 9.816c-.186-1.952 1.192-3.229 1.052-5.591C10.204 1.783 8.499.01 6.3.005c-2.2 0-3.899 1.778-4.05 4.22-.147 2.362 1.237 3.64 1.051 5.591-.259 2.74-2.306 4.697-3.032 7.752-.703 2.942.023 7.876 1.586 10.767l.254.473h8.381l.253-.473c1.564-2.891 2.29-7.82 1.587-10.767-.726-3.055-2.773-5.018-3.032-7.752zM8.55 4.332C8.645 5.946 7.644 7.094 7.498 9H5.1C4.955 7.094 3.948 5.946 4.05 4.33c.203-3.38 4.298-3.38 4.5 0zm.85 22.67H3.2c-1.181-2.543-1.744-6.677-1.181-9.018.601-2.52 2.362-4.331 2.93-7.183h2.7c.574 2.852 2.33 4.663 2.931 7.183.563 2.34 0 6.475-1.18 9.018z" fill="#00F0B5"/></svg>