<svg width="27" height="31" fill="none" xmlns="http://www.w3.org/2000/svg"><path d="M13.5 12.053a3.38 3.38 0 00-3.376 3.375 3.38 3.38 0 003.376 3.375 3.38 3.38 0 003.375-3.375 3.38 3.38 0 00-3.375-3.375zm0 4.822a1.446 1.446 0 110-2.893 1.446 1.446 0 010 2.893zm11.374-1.447c.937-1.221 1.61-2.448 1.923-3.616.363-1.362.237-2.616-.366-3.627-1.098-1.838-3.637-2.59-6.841-2.316C18.189 2.279 16.004 0 13.5 0S8.81 2.279 7.41 5.868c-3.204-.273-5.742.478-6.84 2.318-.604 1.01-.73 2.264-.367 3.626.313 1.168.986 2.395 1.923 3.617C1.19 16.65.516 17.875.203 19.044c-.363 1.363-.237 2.617.365 3.628.956 1.597 2.99 2.382 5.608 2.382.383 0 .814-.07 1.22-.103 1.4 3.61 3.591 5.906 6.104 5.906 2.512 0 4.703-2.295 6.103-5.906.407.034.837.103 1.22.103 2.617 0 4.653-.785 5.607-2.382.604-1.01.73-2.265.367-3.628-.314-1.168-.986-2.394-1.923-3.616zM2.068 11.313c-.232-.858-.177-1.579.158-2.14.556-.931 1.972-1.444 3.926-1.444.2 0 .418.016.63.027a26.013 26.013 0 00-.758 3.85 23.921 23.921 0 00-2.611 2.317c-.646-.898-1.123-1.783-1.345-2.61zm3.744 5.244A19.99 19.99 0 014.66 15.43c.356-.38.74-.756 1.153-1.13-.012.375-.028.747-.028 1.13 0 .382.015.754.028 1.128zm-3.588 5.126c-.333-.56-.388-1.28-.156-2.14.222-.826.7-1.711 1.345-2.61.762.795 1.645 1.57 2.61 2.318.17 1.37.424 2.664.759 3.854-2.273.117-3.942-.393-4.558-1.422zm16.561-11.615a31.56 31.56 0 00-1.556-.936 31.272 31.272 0 00-1.162-.612c.768-.23 1.502-.403 2.204-.53.206.684.377 1.377.514 2.078zM13.5 1.928c1.45 0 2.984 1.57 4.11 4.217-1.308.26-2.693.673-4.11 1.227a24.487 24.487 0 00-4.11-1.228c1.125-2.647 2.66-4.215 4.11-4.215zM8.729 7.99c.702.127 1.436.3 2.203.53-.387.195-.774.395-1.161.612-.538.3-1.052.616-1.557.936.138-.7.31-1.394.515-2.078zm-.515 12.799c.505.32 1.019.637 1.557.936.404.226.806.391 1.21.594-.783.237-1.536.42-2.252.55a21.892 21.892 0 01-.515-2.08zm5.286 8.14c-1.456 0-2.997-1.581-4.124-4.248a24.296 24.296 0 004.124-1.225c1.425.557 2.808.966 4.123 1.225-1.127 2.667-2.667 4.247-4.123 4.247zm4.771-6.06a20.453 20.453 0 01-2.25-.55c.403-.203.805-.368 1.209-.593.537-.3 1.05-.616 1.556-.937-.145.736-.32 1.427-.515 2.08zm.886-4.664a28.465 28.465 0 01-2.866 1.837c-.946.528-1.878.976-2.79 1.362a28.737 28.737 0 01-2.793-1.362 28.575 28.575 0 01-2.865-1.837 29.518 29.518 0 010-5.553A28.486 28.486 0 0113.5 9.448c.912.386 1.846.84 2.792 1.367 1.022.57 1.976 1.19 2.866 1.837a29.713 29.713 0 010 5.553zm1.691-10.477c1.954 0 3.37.514 3.928 1.445.333.56.388 1.281.156 2.14-.222.827-.699 1.711-1.345 2.61a23.977 23.977 0 00-2.61-2.318 26.002 26.002 0 00-.758-3.85c.212-.01.429-.027.63-.027zm.34 6.572c.413.373.796.75 1.153 1.128-.357.38-.74.756-1.153 1.13.012-.375.027-.747.027-1.13 0-.382-.014-.754-.027-1.128zm3.586 7.383c-.613 1.029-2.282 1.54-4.556 1.42.335-1.19.59-2.482.758-3.852a23.91 23.91 0 002.61-2.317c.646.898 1.124 1.783 1.346 2.61.232.858.177 1.578-.158 2.139z" fill="#F61067"/></svg>